<svg width="1200" height="260" viewBox="0 0 1200 260" fill="none" xmlns="http://www.w3.org/2000/svg">

  <rect width="1200" height="260" fill="#050505"/>

  <!-- Background grid -->
  <g opacity="0.16" stroke="#FFFFFF" stroke-width="1">
    <path d="M0 40H1200"/>
    <path d="M0 80H1200"/>
    <path d="M0 120H1200"/>
    <path d="M0 160H1200"/>
    <path d="M0 200H1200"/>
    <path d="M0 240H1200"/>

    <path d="M40 0V260"/>
    <path d="M120 0V260"/>
    <path d="M200 0V260"/>
    <path d="M280 0V260"/>
    <path d="M360 0V260"/>
    <path d="M440 0V260"/>
    <path d="M520 0V260"/>
    <path d="M600 0V260"/>
    <path d="M680 0V260"/>
    <path d="M760 0V260"/>
    <path d="M840 0V260"/>
    <path d="M920 0V260"/>
    <path d="M1000 0V260"/>
    <path d="M1080 0V260"/>
    <path d="M1160 0V260"/>
  </g>

  <!-- Large technical circles -->
  <circle cx="180" cy="130" r="88" stroke="#FFFFFF" stroke-opacity="0.12"/>
  <circle cx="180" cy="130" r="62" stroke="#FFFFFF" stroke-opacity="0.18"/>
  <circle cx="180" cy="130" r="36" stroke="#FFFFFF" stroke-opacity="0.25"/>

  <circle cx="1015" cy="130" r="92" stroke="#FFFFFF" stroke-opacity="0.10"/>
  <circle cx="1015" cy="130" r="65" stroke="#FFFFFF" stroke-opacity="0.16"/>
  <circle cx="1015" cy="130" r="38" stroke="#FFFFFF" stroke-opacity="0.22"/>

  <!-- Left technical lines -->
  <g stroke="#FFFFFF" stroke-width="1.5" opacity="0.65">
    <path d="M40 180L110 110L180 145L250 70L330 115"/>
    <path d="M40 205L125 125"/>
    <path d="M250 70L250 40"/>
    <path d="M330 115L370 75"/>
  </g>

  <!-- Right technical lines -->
  <g stroke="#FFFFFF" stroke-width="1.5" opacity="0.65">
    <path d="M870 170L940 100L1015 140L1080 80L1160 120"/>
    <path d="M850 205L930 125"/>
    <path d="M1080 80L1080 45"/>
    <path d="M1160 120L1190 90"/>
  </g>

  <!-- Center horizontal system line -->
  <line x1="380" y1="130" x2="820" y2="130"
        stroke="#FFFFFF"
        stroke-opacity="0.22"
        stroke-width="1"/>

  <line x1="450" y1="150" x2="750" y2="150"
        stroke="#FFFFFF"
        stroke-opacity="0.10"
        stroke-width="1"/>

  <!-- Center nodes -->
  <g fill="#FFFFFF">
    <circle cx="390" cy="130" r="3"/>
    <circle cx="450" cy="130" r="2"/>
    <circle cx="750" cy="130" r="2"/>
    <circle cx="810" cy="130" r="3"/>
  </g>

  <!-- Small technical markers -->
  <g stroke="#FFFFFF" stroke-width="1" opacity="0.55">
    <path d="M60 45H95"/>
    <path d="M60 45V70"/>

    <path d="M1140 45H1175"/>
    <path d="M1175 45V70"/>

    <path d="M60 215H95"/>
    <path d="M60 190V215"/>

    <path d="M1140 215H1175"/>
    <path d="M1175 190V215"/>
  </g>

  <!-- Center title -->
  <text
    x="600"
    y="105"
    text-anchor="middle"
    fill="#FFFFFF"
    font-family="Arial, Helvetica, sans-serif"
    font-size="30"
    font-weight="700"
    letter-spacing="6">
    UNITY GAME DEVELOPER
  </text>

  <text
    x="600"
    y="133"
    text-anchor="middle"
    fill="#A0A0A0"
    font-family="Arial, Helvetica, sans-serif"
    font-size="11"
    letter-spacing="4">
    GAMEPLAY • MULTIPLAYER • GAME SYSTEMS
  </text>

  <text
    x="600"
    y="164"
    text-anchor="middle"
    fill="#666666"
    font-family="monospace"
    font-size="9"
    letter-spacing="2">
    SYSTEMS / ARCHITECTURE / PERFORMANCE
  </text>

  <!-- Top metadata -->
  <text
    x="42"
    y="28"
    fill="#777777"
    font-family="monospace"
    font-size="8"
    letter-spacing="2">
    SYSTEM_01
  </text>

  <text
    x="1158"
    y="28"
    text-anchor="end"
    fill="#777777"
    font-family="monospace"
    font-size="8"
    letter-spacing="2">
    BUILD_READY
  </text>

  <!-- Bottom metadata -->
  <text
    x="42"
    y="245"
    fill="#555555"
    font-family="monospace"
    font-size="8"
    letter-spacing="2">
    10.778°N / 106.695°E
  </text>

  <text
    x="1158"
    y="245"
    text-anchor="end"
    fill="#555555"
    font-family="monospace"
    font-size="8"
    letter-spacing="2">
    UNITY / C#
  </text>

</svg>